<svg xmlns="http://www.w3.org/2000/svg" width="24" height="24" viewBox="0 0 24 24" fill="none">
  <path d="M6 2a2 2 0 0 0-2 2v16a2 2 0 0 0 2 2h12a2 2 0 0 0 2-2V8l-6-6H6z" fill="#2563EB" opacity="0.15"/>
  <path d="M6 2a2 2 0 0 0-2 2v16a2 2 0 0 0 2 2h12a2 2 0 0 0 2-2V8l-6-6H6zm0 1.5h7.5V8a.5.5 0 0 0 .5.5h4.5V20a.5.5 0 0 1-.5.5H6a.5.5 0 0 1-.5-.5V4a.5.5 0 0 1 .5-.5z" fill="#2563EB"/>
  <path d="M14 2.5V8h5.5L14 2.5z" fill="#2563EB" opacity="0.4"/>
  <text x="12" y="17.5" text-anchor="middle" font-family="Arial,sans-serif" font-weight="700" font-size="7" fill="#2563EB">W</text>
</svg>
